# xmcd
#
# Track frame offsets:
# 150
# 17895
# 27777
# 38735
# 58887
# 71745
# 80562
# 92357
# 104447
# 121702
# 132965
# 144195
# 156955
# 167545
# 182235
# 193812
# 204000
# 211857
# 222647
# 232552
# 246645
# 259372
# 269945
# 280582
# 290847
# 301912
#
# Disc length: 4144 seconds
#
#
# Revision: 4
# Processed by: cddbd v1.5.1PL0 Copyright (c) Steve Scherf et al.
# Submitted via: FreeRIP 2.941 
#
DISCID=83102e1a
DTITLE=Vencedores por Cristo - Louvor I e II
DYEAR=1995
DGENRE=Gospel
TTITLE0=Louva A Deus
TTITLE1=Enquanto Oramos
TTITLE2=Consagração
TTITLE3=Salmo 108
TTITLE4=Buscai Primeiro
TTITLE5=O Deus Que Te Guarda
TTITLE6=Pai Eu Te Adoro
TTITLE7=Minha Paz Vos Dou
TTITLE8=Pai De Amor
TTITLE9=Faze-Me Chegar
TTITLE10=Mente E Coração
TTITLE11=Glória Pra Sempre
TTITLE12=Então Se Verá
TTITLE13=Exaltar-Te-Ei - Levantai, Ó Portas
TTITLE14=Rendei Graças
TTITLE15=Deus Está Presente
TTITLE16=Se Tão Somente
TTITLE17=Bendizei Ao Senhor
TTITLE18=Meu Coração
TTITLE19=Para O Louvor Da Sua Glória
TTITLE20=Salmos De Louvor -  Louvado Seja Deus
TTITLE21=Vaso Novo
TTITLE22=Hosana
TTITLE23=Jerusalém
TTITLE24=Ao Que Está Sentado
TTITLE25=Louva A Deus
EXTD=
EXTT0=
EXTT1=
EXTT2=
EXTT3=
EXTT4=
EXTT5=
EXTT6=
EXTT7=
EXTT8=
EXTT9=
EXTT10=
EXTT11=
EXTT12=
EXTT13=
EXTT14=
EXTT15=
EXTT16=
EXTT17=
EXTT18=
EXTT19=
EXTT20=
EXTT21=
EXTT22=
EXTT23=
EXTT24=
EXTT25=
PLAYORDER=
